<svg xmlns="http://www.w3.org/2000/svg" viewBox="0 0 72.82 71.88"><defs><style>.cls-1{fill:#56c1d9;}</style></defs><g id="Layer_2" data-name="Layer 2"><g id="Layer_1-2" data-name="Layer 1"><path class="cls-1" d="M0,37.44c0-.06,0-.13,0-.19v.33H0A.61.61,0,0,1,0,37.44Zm19.77-1.08-.05,0,.33.11ZM28.3,40h0l.13.07Zm11,3.38h0Zm32.77-1.7h0Zm.72.28h0v-.08S72.81,41.9,72.81,41.93ZM28.3,40Z"/><path class="cls-1" d="M59.54,63.64a36.34,36.34,0,0,1-7,4.53A35.6,35.6,0,0,1,36.9,71.88h-.26l-1.17,0A36,36,0,0,1,9.41,59.4c-.27-.31-.54-.63-.8-.95.51-.15,1-.32,1.44-.49a15.75,15.75,0,0,1,2.42-.73,18.46,18.46,0,0,1,3.84-.1c2.7.25,6.13,2.15,10.11,4.34,5.66,3.12,12,6.62,18.41,6.62.45,0,.9,0,1.35,0A29.31,29.31,0,0,0,51,67.13,34.88,34.88,0,0,0,59.54,63.64Z"/><path class="cls-1" d="M70.45,48.14a35.42,35.42,0,0,1-3.54,7.17,36.37,36.37,0,0,1-5,6.2l-.1-.14a34.78,34.78,0,0,1-11,5.06,27.81,27.81,0,0,1-4.7.89c-6.64.53-13.39-3.19-19.35-6.48-4.05-2.23-7.55-4.16-10.4-4.43a18.65,18.65,0,0,0-4,.11,16.13,16.13,0,0,0-2.55.76,14.84,14.84,0,0,1-1.67.55A35.81,35.81,0,0,1,2.26,46.41a20.23,20.23,0,0,1,5.19-1.55c7.59-1.2,13.55,2.48,19.31,6a50.78,50.78,0,0,0,9.18,4.84,25.07,25.07,0,0,0,8.48,1.41,32.32,32.32,0,0,0,5.45-.48C56,55.59,63,52.72,70.45,48.14Z"/><path class="cls-1" d="M72.12,41.66v.08a35.4,35.4,0,0,1-1.29,5.33h0c-13.78,8.6-25.43,11.28-34.63,8a49.23,49.23,0,0,1-9-4.77c-5.88-3.62-12-7.37-19.8-6.13a21,21,0,0,0-5.29,1.57A35.84,35.84,0,0,1,.73,37.41v-.14L1,37.13,1.36,37l.32-.12c.49-.19,1-.37,1.48-.53l.31-.1.33-.1c.45-.13.9-.25,1.36-.36l.34-.08.34-.07.33-.07.19,0,.27-.05.6-.1.34-.05.35,0,.35,0,.25,0,.16,0,.35,0,.34,0,.66,0c.48,0,1,0,1.43,0s.83,0,1.24,0l.42,0,.37,0,.52,0,.34,0,.38,0,.29,0,.44.06.44.07.43.07.44.09.44.09.8.18h0l1.7.48.33.11c.4.13.79.28,1.18.42l.66.27.36.16.56.25.27.13q1,.48,2,1a28.88,28.88,0,0,0,2.49,1.64l0,0a4.69,4.69,0,0,0,.55.31l.2.1.09.06.1,0,.58.3.3.15c.7.34,1.42.66,2.15.94l.57.21.3.11.31.11.31.1.32.1c.2.06.41.13.62.18l.32.09.84.22.34.07.33.08.34.06.68.13.68.11.51.07.47.06h0l.34,0,.39,0,.57,0,.47,0h.19l.4,0h.67A27.89,27.89,0,0,0,49.66,43a27.66,27.66,0,0,0,3.21-1.2l.36-.17.85-.41.4-.2h0l.58-.17.38-.1.48-.13.4-.09.2,0,.36-.07.49-.1.44-.07.61-.1.37,0,.3,0c.2,0,.4-.05.61-.06l.38,0,.38,0,.35,0h2.47l.27,0h.36l.31,0,.94.08.31,0,.31,0,.62.08.31,0,.31,0,.31.06.61.12.47.1.22.06.52.13.49.13h0l.22.06.4.12.24.08.37.12.3.1.31.11.23.08.37.15Z"/><path class="cls-1" d="M66.34,15.69h-7.5a6.1,6.1,0,0,0-1.79-4l2.83-3.19A36.65,36.65,0,0,1,66.34,15.69Z"/><path class="cls-1" d="M71.08,25.67l-12.82-7a6.08,6.08,0,0,0,.58-2.26h8c.23.36.46.71.67,1.07l.43.73q.32.55.6,1.11A35.63,35.63,0,0,1,71.08,25.67Z"/><path class="cls-1" d="M72.58,35.94c0,.63,0,1.26,0,1.88L57.05,20.38a6.06,6.06,0,0,0,.87-1.08l13.43,7.34A36,36,0,0,1,72.58,35.94Z"/><path class="cls-1" d="M72.46,38.83h0c0,.69-.13,1.39-.23,2.1h0l-.14-.06h0l-.16-.06,0,0-.07,0-.13,0-.6-.2c-.2-.07-.4-.14-.6-.19l-.6-.18h0L69.22,40h0l-.6-.15h0l-.5-.11-.4-.08-.2,0-.19,0-.43-.07-.55-.09-.33,0-.32,0-.26,0-.4,0-.14,0-.61,0-.63,0-.64,0H61.05l-6-17.42a6.1,6.1,0,0,0,1.46-.86Z"/><path class="cls-1" d="M60.3,39.18h0a2.31,2.31,0,0,0-.37,0l-.39,0-.69.08-.18,0-.28,0-.38.06-.38.06-.38.07-.38.07-.58.12-.15,0-.38.09-.53.13L55,40.1c-.25.06-.49.13-.74.21l-.06,0-.28.15-.27.14-.12.06-.27.12-.08,0,0,0,0,0V22.17A5.44,5.44,0,0,0,54.37,22Z"/><path class="cls-1" d="M52.36,22.17v19l-.32.14-.09,0-.31.13-.32.13-.11,0-.3.11-.6.21-.27.09-.59.19-.48.14-.86.23-.19.05-.35.08c-.35.08-.69.15-1,.21l-.46.09a28,28,0,0,1-4.49.37H40.33l-.4,0-.45,0h0L50.31,21.69A6.15,6.15,0,0,0,52.36,22.17Z"/><path class="cls-1" d="M47.27,18.85,19.22,35.44h0L19,35.37l0,0-.09,0-.09,0-.47-.12-.13,0-.06,0-.19,0-.11,0h-.07l-.22,0-.18,0-.41-.09-.15,0-.32-.06-.12,0-.44-.07-.49-.08-.48-.06-.34,0-.28,0h0l-.45,0h-.05l-.41,0c-.63,0-1.27-.06-1.9-.06h-1c-.24,0-.48,0-.71,0l-.35,0-.7.07-.33,0-.26,0c-.37,0-.74.1-1.11.16l-.34,0-.34.07L6,34.88,5.62,35,5.28,35l-.64.15H4.58l-.31.09L4,35.36c-.66.19-1.32.4-2,.64l-.22.08-.42.16L1,36.37l-.31.13h0c0-.18,0-.37,0-.56,0-1.12.06-2.25.16-3.37.07-.79.17-1.57.3-2.35L46.94,18.09C47,18.35,47.15,18.61,47.27,18.85Z"/><path class="cls-1" d="M46.74,17.4l-45.46,12a36,36,0,0,1,5.18-13H46.61A6.38,6.38,0,0,0,46.74,17.4Z"/><path class="cls-1" d="M46.9,14.15a6.08,6.08,0,0,0-.29,1.54H6.93a35.85,35.85,0,0,1,9.55-9.51,34.3,34.3,0,0,1,4.08-2.4Z"/><path class="cls-1" d="M48.07,12.08a5.91,5.91,0,0,0-.91,1.4L21.45,3.35A35.86,35.86,0,0,1,36.48,0Z"/><path class="cls-1" d="M52.36,3.62V9.94a6.08,6.08,0,0,0-3.8,1.62L37.49,0A36,36,0,0,1,52.36,3.62Z"/><path class="cls-1" d="M59.33,8.07l-2.82,3.17a6.1,6.1,0,0,0-3.43-1.3V4A35.94,35.94,0,0,1,59.33,8.07Z"/><path class="cls-1" d="M72.09,40.87l.14.06h0ZM60.65,39.15Zm.4,0Zm-8,1.74h0l0,0ZM38,43.94l.47.06h0ZM19.31,36.21l-.15,0L18.5,36,18,35.86l1.7.48Zm-.42-.87-.15,0,.09,0,.09,0Zm-1.11-.28.11,0,.19,0ZM17.49,35l.22,0h0L17.31,35Z"/><path class="cls-1" d="M48.66,20.63,29,40.32l-.05,0-.05,0-.21-.11-.12-.06-.08-.05h0L28.3,40h0L48.15,20.12Z"/></g></g></svg>